<svg xmlns="http://www.w3.org/2000/svg" xmlns:xlink="http://www.w3.org/1999/xlink" width="1440" height="624" viewBox="0 0 1440 624">
  <defs>
    <clipPath id="clip-path">
      <rect id="Rectangle_11" data-name="Rectangle 11" width="1440" height="624" transform="translate(0 1292)" fill="#fff"/>
    </clipPath>
    <linearGradient id="linear-gradient" x1="0.493" y1="0.292" x2="0.493" y2="1.215" gradientUnits="objectBoundingBox">
      <stop offset="0" stop-color="#fdfdfd"/>
      <stop offset="1" stop-color="#fdfdfd" stop-opacity="0"/>
    </linearGradient>
  </defs>
  <g id="LARGE_TEXT" data-name="LARGE TEXT" transform="translate(0 -1292)" clip-path="url(#clip-path)">
    <path id="Path_459" data-name="Path 459" d="M4.5-126V0H51.66V-22.5H29.7V-52.74H50.4v-22.5H29.7V-103.5H51.3V-126Zm117.72,0H98.28L90-87.48,82.98-126H56.7L72-60.84,56.34,0H80.28l8.46-38.88L96.3,0h26.28L106.74-65.16Zm41.22,70.38v30.6c0,3.06-1.44,4.5-4.5,4.5H155.7c-3.06,0-4.5-1.44-4.5-4.5v-75.96c0-3.06,1.44-4.5,4.5-4.5h2.88c3.06,0,4.5,1.44,4.5,4.5v26.82h24.84v-29.52c0-15.66-7.74-23.4-23.4-23.4H149.4c-15.66,0-23.4,7.74-23.4,23.4v81.36c0,15.66,7.74,23.4,23.4,23.4h15.48c15.66,0,23.4-7.74,23.4-23.4v-33.3ZM196.74-126V0h43.38V-22.5H221.94V-126Zm111.42,0h-25.2V-25.02c0,3.06-1.44,4.5-4.5,4.5h-2.7c-3.06,0-4.5-1.44-4.5-4.5V-126h-25.2V-22.32c0,15.66,7.74,23.4,23.4,23.4h15.3c15.66,0,23.4-7.74,23.4-23.4Zm58.86,60.66-21.6-16.02c-3.06-2.16-4.32-4.14-4.32-8.1v-11.88c0-3.06,1.44-4.5,4.5-4.5h1.98c3.06,0,4.5,1.44,4.5,4.5v20.7h24.66v-23.04c0-15.66-7.74-23.4-23.4-23.4H339.66c-15.66,0-23.4,7.74-23.4,23.4V-83.7c0,9,2.34,14.22,10.08,19.8l21.6,16.02c3.06,2.16,4.32,4.14,4.32,8.1v15.12c0,3.06-1.44,4.5-4.5,4.5h-2.34c-3.06,0-4.5-1.44-4.5-4.5V-49.14H316.26v26.82c0,15.66,7.74,23.4,23.4,23.4H353.7c15.66,0,23.4-7.74,23.4-23.4V-45.54C377.1-54.9,374.76-59.76,367.02-65.34ZM410.04-126h-25.2V0h25.2ZM465.66,0l16.92-126h-23.4L450-36.54,441.18-126H415.62L432.54,0Zm22.32-126V0h47.16V-22.5H513.18V-52.74h20.7v-22.5h-20.7V-103.5h21.6V-126ZM630.36-22.32v-81.36c0-15.66-7.74-23.4-23.4-23.4h-16.2c-15.66,0-23.4,7.74-23.4,23.4v81.36c0,15.66,7.74,23.4,23.4,23.4h16.2C622.62,1.08,630.36-6.66,630.36-22.32Zm-25.2-78.66v75.96c0,3.06-1.44,4.5-4.5,4.5h-3.6c-3.06,0-4.5-1.44-4.5-4.5v-75.96c0-3.06,1.44-4.5,4.5-4.5h3.6C603.72-105.48,605.16-104.04,605.16-100.98ZM639-126V0h25.2V-51.48H684v-22.5H664.2V-103.5h20.7V-126Zm52.92,0V0h25.2V-51.48h19.8v-22.5h-19.8V-103.5h20.7V-126ZM794.34-65.34l-21.6-16.02c-3.06-2.16-4.32-4.14-4.32-8.1v-11.88c0-3.06,1.44-4.5,4.5-4.5h1.98c3.06,0,4.5,1.44,4.5,4.5v20.7h24.66v-23.04c0-15.66-7.74-23.4-23.4-23.4H766.98c-15.66,0-23.4,7.74-23.4,23.4V-83.7c0,9,2.34,14.22,10.08,19.8l21.6,16.02c3.06,2.16,4.32,4.14,4.32,8.1v15.12c0,3.06-1.44,4.5-4.5,4.5h-2.34c-3.06,0-4.5-1.44-4.5-4.5V-49.14H743.58v26.82c0,15.66,7.74,23.4,23.4,23.4h14.04c15.66,0,23.4-7.74,23.4-23.4V-45.54C804.42-54.9,802.08-59.76,794.34-65.34ZM811.98-126V0h47.16V-22.5H837.18V-52.74h20.7v-22.5h-20.7V-103.5h21.6V-126ZM905.04,0V-103.5h15.3V-126h-55.8v22.5h15.3V0Zm83.88,0V-103.5h15.3V-126h-55.8v22.5h15.3V0Zm21.6-126V0h47.16V-22.5h-21.96V-52.74h20.7v-22.5h-20.7V-103.5h21.6V-126Zm92.34,70.38v30.6c0,3.06-1.44,4.5-4.5,4.5h-3.24c-3.06,0-4.5-1.44-4.5-4.5v-75.96c0-3.06,1.44-4.5,4.5-4.5H1098c3.06,0,4.5,1.44,4.5,4.5v26.82h24.84v-29.52c0-15.66-7.74-23.4-23.4-23.4h-15.12c-15.66,0-23.4,7.74-23.4,23.4v81.36c0,15.66,7.74,23.4,23.4,23.4h15.48c15.66,0,23.4-7.74,23.4-23.4v-33.3Zm58.5-19.62V-126h-25.2V0h25.2V-52.74h12.6V0h25.2V-126h-25.2v50.76ZM1269.72,0V-126h-21.78l.18,26.1.36,36.36L1233.9-126h-25.74V0h21.78l-.36-36.54-.36-32.04L1245.24,0Zm71.64-22.32v-81.36c0-15.66-7.74-23.4-23.4-23.4h-16.2c-15.66,0-23.4,7.74-23.4,23.4v81.36c0,15.66,7.74,23.4,23.4,23.4h16.2C1333.62,1.08,1341.36-6.66,1341.36-22.32Zm-25.2-78.66v75.96c0,3.06-1.44,4.5-4.5,4.5h-3.6c-3.06,0-4.5-1.44-4.5-4.5v-75.96c0-3.06,1.44-4.5,4.5-4.5h3.6C1314.72-105.48,1316.16-104.04,1316.16-100.98ZM1350-126V0h43.38V-22.5H1375.2V-126ZM1461.78-22.32v-81.36c0-15.66-7.74-23.4-23.4-23.4h-16.2c-15.66,0-23.4,7.74-23.4,23.4v81.36c0,15.66,7.74,23.4,23.4,23.4h16.2C1454.04,1.08,1461.78-6.66,1461.78-22.32Zm-25.2-78.66v75.96c0,3.06-1.44,4.5-4.5,4.5h-3.6c-3.06,0-4.5-1.44-4.5-4.5v-75.96c0-3.06,1.44-4.5,4.5-4.5h3.6C1435.14-105.48,1436.58-104.04,1436.58-100.98Zm71.82,50.94v25.02c0,3.06-1.44,4.5-4.5,4.5h-4.14c-3.06,0-4.5-1.44-4.5-4.5v-75.96c0-3.06,1.44-4.5,4.5-4.5h3.6c3.06,0,4.5,1.44,4.5,4.5v21.42h24.84v-24.12c0-15.66-7.74-23.4-23.4-23.4h-15.84c-15.66,0-23.4,7.74-23.4,23.4v81.36c0,15.66,7.74,23.4,23.4,23.4h16.2c15.66,0,23.4-7.74,23.4-23.4V-71.1h-32.58v21.06Zm74.16,5.22L1603.8-126h-23.94l-9,42.84L1562.4-126h-26.28l21.24,82.98V0h25.2Zm74.7,1.08h11.7c15.66,0,23.4-7.74,23.4-23.4V-102.6c0-15.66-7.74-23.4-23.4-23.4h-36.9V0h25.2Zm9.9-56.16v30.06c0,3.06-1.44,4.5-4.5,4.5h-5.4V-104.4h5.4C1665.72-104.4,1667.16-102.96,1667.16-99.9Zm82.44,40.32c6.84-2.52,10.8-7.92,10.8-18.72v-24.3c0-15.66-7.74-23.4-23.4-23.4h-37.62V0h25.2V-47.7h6.3c3.06,0,4.5,1.44,4.5,4.5V0h25.2V-43.38C1760.58-52.56,1757.34-57.42,1749.6-59.58Zm-14.4-39.96v25.92c0,3.06-1.44,4.5-4.5,4.5h-6.12v-34.92h6.12C1733.76-104.04,1735.2-102.6,1735.2-99.54Zm96.48,77.22v-81.36c0-15.66-7.74-23.4-23.4-23.4h-16.2c-15.66,0-23.4,7.74-23.4,23.4v81.36c0,15.66,7.74,23.4,23.4,23.4h16.2C1823.94,1.08,1831.68-6.66,1831.68-22.32Zm-25.2-78.66v75.96c0,3.06-1.44,4.5-4.5,4.5h-3.6c-3.06,0-4.5-1.44-4.5-4.5v-75.96c0-3.06,1.44-4.5,4.5-4.5h3.6C1805.04-105.48,1806.48-104.04,1806.48-100.98ZM1885.86,0l16.92-126h-23.4l-9.18,89.46L1861.38-126h-25.56L1852.74,0Zm47.7-126h-25.2V0h25.2Zm9.18,126h35.46c18.18,0,27-8.82,27-27V-99c0-18.18-8.82-27-27-27h-35.46Zm25.2-104.4h5.04c4.86,0,7.02,2.16,7.02,7.02v68.76c0,4.86-2.16,7.02-7.02,7.02h-5.04Zm45.9-21.6V0H2061V-22.5h-21.96V-52.74h20.7v-22.5h-20.7V-103.5h21.6V-126ZM2118.6-65.34,2097-81.36c-3.06-2.16-4.32-4.14-4.32-8.1v-11.88c0-3.06,1.44-4.5,4.5-4.5h1.98c3.06,0,4.5,1.44,4.5,4.5v20.7h24.66v-23.04c0-15.66-7.74-23.4-23.4-23.4h-13.68c-15.66,0-23.4,7.74-23.4,23.4V-83.7c0,9,2.34,14.22,10.08,19.8l21.6,16.02c3.06,2.16,4.32,4.14,4.32,8.1v15.12c0,3.06-1.44,4.5-4.5,4.5H2097c-3.06,0-4.5-1.44-4.5-4.5V-49.14h-24.66v26.82c0,15.66,7.74,23.4,23.4,23.4h14.04c15.66,0,23.4-7.74,23.4-23.4V-45.54C2128.68-54.9,2126.34-59.76,2118.6-65.34ZM2160.72,0h35.46c18.18,0,27-8.82,27-27V-99c0-18.18-8.82-27-27-27h-35.46Zm25.2-104.4h5.04c4.86,0,7.02,2.16,7.02,7.02v68.76c0,4.86-2.16,7.02-7.02,7.02h-5.04Zm45.9-21.6V0h47.16V-22.5h-21.96V-52.74h20.7v-22.5h-20.7V-103.5h21.6V-126Zm55.26,0V0h47.16V-22.5h-21.96V-52.74h20.7v-22.5h-20.7V-103.5h21.6V-126Zm80.46,82.26h11.7c15.66,0,23.4-7.74,23.4-23.4V-102.6c0-15.66-7.74-23.4-23.4-23.4h-36.9V0h25.2Zm9.9-56.16v30.06c0,3.06-1.44,4.5-4.5,4.5h-5.4V-104.4h5.4C2376-104.4,2377.44-102.96,2377.44-99.9Zm32.22-26.1V0h47.16V-22.5h-21.96V-52.74h20.7v-22.5h-20.7V-103.5h21.6V-126Zm105.48,66.42c6.84-2.52,10.8-7.92,10.8-18.72v-24.3c0-15.66-7.74-23.4-23.4-23.4h-37.62V0h25.2V-47.7h6.3c3.06,0,4.5,1.44,4.5,4.5V0h25.2V-43.38C2526.12-52.56,2522.88-57.42,2515.14-59.58Zm-14.4-39.96v25.92c0,3.06-1.44,4.5-4.5,4.5h-6.12v-34.92h6.12C2499.3-104.04,2500.74-102.6,2500.74-99.54ZM2621.7-22.32v-81.36c0-15.66-7.74-23.4-23.4-23.4h-16.2c-15.66,0-23.4,7.74-23.4,23.4v81.36c0,15.66,7.74,23.4,23.4,23.4h16.2C2613.96,1.08,2621.7-6.66,2621.7-22.32Zm-25.2-78.66v75.96c0,3.06-1.44,4.5-4.5,4.5h-3.6c-3.06,0-4.5-1.44-4.5-4.5v-75.96c0-3.06,1.44-4.5,4.5-4.5h3.6C2595.06-105.48,2596.5-104.04,2596.5-100.98ZM2630.34-126V0h25.2V-51.48h19.8v-22.5h-19.8V-103.5h20.7V-126Zm52.92,0V0h25.2V-51.48h19.8v-22.5h-19.8V-103.5h20.7V-126Zm102.42,60.66-21.6-16.02c-3.06-2.16-4.32-4.14-4.32-8.1v-11.88c0-3.06,1.44-4.5,4.5-4.5h1.98c3.06,0,4.5,1.44,4.5,4.5v20.7h24.66v-23.04c0-15.66-7.74-23.4-23.4-23.4h-13.68c-15.66,0-23.4,7.74-23.4,23.4V-83.7c0,9,2.34,14.22,10.08,19.8l21.6,16.02c3.06,2.16,4.32,4.14,4.32,8.1v15.12c0,3.06-1.44,4.5-4.5,4.5h-2.34c-3.06,0-4.5-1.44-4.5-4.5V-49.14h-24.66v26.82c0,15.66,7.74,23.4,23.4,23.4h14.04c15.66,0,23.4-7.74,23.4-23.4V-45.54C2795.76-54.9,2793.42-59.76,2785.68-65.34ZM2803.32-126V0h47.16V-22.5h-21.96V-52.74h20.7v-22.5h-20.7V-103.5h21.6V-126ZM2896.38,0V-103.5h15.3V-126h-55.8v22.5h15.3V0Zm46.08-126V0h25.2V-51.48h19.8v-22.5h-19.8V-103.5h20.7V-126ZM3058.02-22.32v-81.36c0-15.66-7.74-23.4-23.4-23.4h-16.2c-15.66,0-23.4,7.74-23.4,23.4v81.36c0,15.66,7.74,23.4,23.4,23.4h16.2C3050.28,1.08,3058.02-6.66,3058.02-22.32Zm-25.2-78.66v75.96c0,3.06-1.44,4.5-4.5,4.5h-3.6c-3.06,0-4.5-1.44-4.5-4.5v-75.96c0-3.06,1.44-4.5,4.5-4.5h3.6C3031.38-105.48,3032.82-104.04,3032.82-100.98Zm84.06,41.4c6.84-2.52,10.8-7.92,10.8-18.72v-24.3c0-15.66-7.74-23.4-23.4-23.4h-37.62V0h25.2V-47.7h6.3c3.06,0,4.5,1.44,4.5,4.5V0h25.2V-43.38C3127.86-52.56,3124.62-57.42,3116.88-59.58Zm-14.4-39.96v25.92c0,3.06-1.44,4.5-4.5,4.5h-6.12v-34.92h6.12C3101.04-104.04,3102.48-102.6,3102.48-99.54Zm108.36,34.38c6.66-2.52,10.44-7.92,10.44-18.72V-102.6c0-15.66-7.74-23.4-23.4-23.4H3160.8V0h37.44c15.66,0,23.4-7.74,23.4-23.4V-48.96C3221.64-58.14,3218.4-63,3210.84-65.16ZM3196.26-99.9v20.88c0,3.06-1.44,4.5-4.5,4.5h-5.94V-104.4h5.94C3194.82-104.4,3196.26-102.96,3196.26-99.9Zm-10.44,46.44h6.3c3.06,0,4.5,1.44,4.5,4.5V-26.1c0,3.06-1.44,4.5-4.5,4.5h-6.3ZM3229.74-126V0h47.16V-22.5h-21.96V-52.74h20.7v-22.5h-20.7V-103.5h21.6V-126ZM3322.8,0V-103.5h15.3V-126h-55.8v22.5h15.3V0Zm59.4,0V-103.5h15.3V-126h-55.8v22.5H3357V0Zm21.6-126V0h47.16V-22.5H3429V-52.74h20.7v-22.5H3429V-103.5h21.6V-126Zm105.48,66.42c6.84-2.52,10.8-7.92,10.8-18.72v-24.3c0-15.66-7.74-23.4-23.4-23.4h-37.62V0h25.2V-47.7h6.3c3.06,0,4.5,1.44,4.5,4.5V0h25.2V-43.38C3520.26-52.56,3517.02-57.42,3509.28-59.58Zm-14.4-39.96v25.92c0,3.06-1.44,4.5-4.5,4.5h-6.12v-34.92h6.12C3493.439-104.04,3494.88-102.6,3494.88-99.54Zm108.36,34.38c6.66-2.52,10.44-7.92,10.44-18.72V-102.6c0-15.66-7.74-23.4-23.4-23.4H3553.2V0h37.44c15.66,0,23.4-7.74,23.4-23.4V-48.96C3614.04-58.14,3610.8-63,3603.24-65.16Zm-14.58-34.74v20.88c0,3.06-1.44,4.5-4.5,4.5h-5.94V-104.4h5.94C3587.219-104.4,3588.659-102.96,3588.659-99.9Zm-10.44,46.44h6.3c3.06,0,4.5,1.44,4.5,4.5V-26.1c0,3.06-1.44,4.5-4.5,4.5h-6.3ZM3686.039,0l-16.56-126H3635.1L3618.539,0h22.86l1.8-18.36h15.84L3661.019,0Zm-34.92-95.22,5.58,54.9h-11.16Zm40.32-30.78V0h43.38V-22.5h-18.18V-126Zm50.04,0V0h43.38V-22.5h-18.18V-126Zm111.6,70.38v30.6c0,3.06-1.44,4.5-4.5,4.5h-3.24c-3.06,0-4.5-1.44-4.5-4.5v-75.96c0-3.06,1.44-4.5,4.5-4.5h2.88c3.06,0,4.5,1.44,4.5,4.5v26.82h24.84v-29.52c0-15.66-7.74-23.4-23.4-23.4h-15.12c-15.66,0-23.4,7.74-23.4,23.4v81.36c0,15.66,7.74,23.4,23.4,23.4h15.48c15.66,0,23.4-7.74,23.4-23.4v-33.3Zm95.94,33.3v-81.36c0-15.66-7.74-23.4-23.4-23.4h-16.2c-15.66,0-23.4,7.74-23.4,23.4v81.36c0,15.66,7.74,23.4,23.4,23.4h16.2C3941.279,1.08,3949.019-6.66,3949.019-22.32Zm-25.2-78.66v75.96c0,3.06-1.44,4.5-4.5,4.5h-3.6c-3.06,0-4.5-1.44-4.5-4.5v-75.96c0-3.06,1.44-4.5,4.5-4.5h3.6C3922.379-105.48,3923.819-104.04,3923.819-100.98ZM4019.219,0V-126h-21.78l.18,26.1.36,36.36L3983.4-126h-25.74V0h21.78l-.36-36.54-.36-32.04L3994.74,0Zm46.8,0V-103.5h15.3V-126h-55.8v22.5h15.3V0Zm71.82-59.58c6.84-2.52,10.8-7.92,10.8-18.72v-24.3c0-15.66-7.74-23.4-23.4-23.4h-37.62V0h25.2V-47.7h6.3c3.06,0,4.5,1.44,4.5,4.5V0h25.2V-43.38C4148.819-52.56,4145.58-57.42,4137.839-59.58Zm-14.4-39.96v25.92c0,3.06-1.44,4.5-4.5,4.5h-6.12v-34.92h6.12C4122-104.04,4123.439-102.6,4123.439-99.54Zm96.48,77.22v-81.36c0-15.66-7.74-23.4-23.4-23.4h-16.2c-15.66,0-23.4,7.74-23.4,23.4v81.36c0,15.66,7.74,23.4,23.4,23.4h16.2C4212.179,1.08,4219.919-6.66,4219.919-22.32Zm-25.2-78.66v75.96c0,3.06-1.44,4.5-4.5,4.5h-3.6c-3.06,0-4.5-1.44-4.5-4.5v-75.96c0-3.06,1.44-4.5,4.5-4.5h3.6C4193.279-105.48,4194.719-104.04,4194.719-100.98Zm33.84-25.02V0h43.38V-22.5h-18.18V-126ZM54.72,87.42c6.84-2.52,10.8-7.92,10.8-18.72V44.4c0-15.66-7.74-23.4-23.4-23.4H4.5V147H29.7V99.3H36c3.06,0,4.5,1.44,4.5,4.5V147H65.7V103.62C65.7,94.44,62.46,89.58,54.72,87.42ZM40.32,47.46V73.38c0,3.06-1.44,4.5-4.5,4.5H29.7V42.96h6.12C38.88,42.96,40.32,44.4,40.32,47.46ZM71.28,84v21.6H108V84ZM152.1,96.96v25.02c0,3.06-1.44,4.5-4.5,4.5h-4.14c-3.06,0-4.5-1.44-4.5-4.5V46.02c0-3.06,1.44-4.5,4.5-4.5h3.6c3.06,0,4.5,1.44,4.5,4.5V67.44H176.4V43.32c0-15.66-7.74-23.4-23.4-23.4H137.16c-15.66,0-23.4,7.74-23.4,23.4v81.36c0,15.66,7.74,23.4,23.4,23.4h16.2c15.66,0,23.4-7.74,23.4-23.4V75.9H144.18V96.96Zm83.52-9.54c6.84-2.52,10.8-7.92,10.8-18.72V44.4c0-15.66-7.74-23.4-23.4-23.4H185.4V147h25.2V99.3h6.3c3.06,0,4.5,1.44,4.5,4.5V147h25.2V103.62C246.6,94.44,243.36,89.58,235.62,87.42Zm-14.4-39.96V73.38c0,3.06-1.44,4.5-4.5,4.5H210.6V42.96h6.12C219.78,42.96,221.22,44.4,221.22,47.46ZM280.44,21h-25.2V147h25.2Zm34.38,82.26h11.7c15.66,0,23.4-7.74,23.4-23.4V44.4c0-15.66-7.74-23.4-23.4-23.4h-36.9V147h25.2Zm9.9-56.16V77.16c0,3.06-1.44,4.5-4.5,4.5h-5.4V42.6h5.4C323.28,42.6,324.72,44.04,324.72,47.1Zm81.9,56.16h11.7c15.66,0,23.4-7.74,23.4-23.4V44.4c0-15.66-7.74-23.4-23.4-23.4h-36.9V147h25.2Zm9.9-56.16V77.16c0,3.06-1.44,4.5-4.5,4.5h-5.4V42.6h5.4C415.08,42.6,416.52,44.04,416.52,47.1Zm82.44,40.32c6.84-2.52,10.8-7.92,10.8-18.72V44.4c0-15.66-7.74-23.4-23.4-23.4H448.74V147h25.2V99.3h6.3c3.06,0,4.5,1.44,4.5,4.5V147h25.2V103.62C509.94,94.44,506.7,89.58,498.96,87.42Zm-14.4-39.96V73.38c0,3.06-1.44,4.5-4.5,4.5h-6.12V42.96h6.12C483.12,42.96,484.56,44.4,484.56,47.46Zm96.48,77.22V43.32c0-15.66-7.74-23.4-23.4-23.4h-16.2c-15.66,0-23.4,7.74-23.4,23.4v81.36c0,15.66,7.74,23.4,23.4,23.4h16.2C573.3,148.08,581.04,140.34,581.04,124.68Zm-25.2-78.66v75.96c0,3.06-1.44,4.5-4.5,4.5h-3.6c-3.06,0-4.5-1.44-4.5-4.5V46.02c0-3.06,1.44-4.5,4.5-4.5h3.6C554.4,41.52,555.84,42.96,555.84,46.02ZM589.68,21V147h25.2V95.52h19.8V73.02h-19.8V43.5h20.7V21Zm78.3,0h-25.2V147h25.2Zm9.18,0V147h43.38V124.5H702.36V21Zm50.04,0V147h47.16V124.5H752.4V94.26h20.7V71.76H752.4V43.5H774V21ZM836.64,147H860.4l9.54-82.44V147h24.84V21H858.24L850.5,97.32,843.3,21H806.94V147H827.1V63.66Zm131.04,0L951.12,21H916.74L900.18,147h22.86l1.8-18.36h15.84L942.66,147ZM932.76,51.78l5.58,54.9H927.18ZM1032.84,21H1008.9l-8.28,38.52L993.6,21H967.32l15.3,65.16L966.96,147H990.9l8.46-38.88,7.56,38.88h26.28l-15.84-65.16Zm31.32,0h-25.2V147h25.2Zm38.88,126h23.76l9.54-82.44V147h24.84V21h-36.54l-7.74,76.32L1109.7,21h-36.36V147h20.16V63.66Zm92.52-126h-25.2V147h25.2Zm34.2,22.5-26.64,77.4V147h50.76V124.5h-26.64l26.64-77.4V21h-49.86V43.5ZM1261.08,21V147h47.16V124.5h-21.96V94.26h20.7V71.76h-20.7V43.5h21.6V21Zm104.76,60.66-21.6-16.02c-3.06-2.16-4.32-4.14-4.32-8.1V45.66c0-3.06,1.44-4.5,4.5-4.5h1.98c3.06,0,4.5,1.44,4.5,4.5v20.7h24.66V43.32c0-15.66-7.74-23.4-23.4-23.4h-13.68c-15.66,0-23.4,7.74-23.4,23.4V63.3c0,9,2.34,14.22,10.08,19.8l21.6,16.02c3.06,2.16,4.32,4.14,4.32,8.1v15.12c0,3.06-1.44,4.5-4.5,4.5h-2.34c-3.06,0-4.5-1.44-4.5-4.5V97.86h-24.66v26.82c0,15.66,7.74,23.4,23.4,23.4h14.04c15.66,0,23.4-7.74,23.4-23.4V101.46C1375.92,92.1,1373.58,87.24,1365.84,81.66Zm92.16,0-21.6-16.02c-3.06-2.16-4.32-4.14-4.32-8.1V45.66c0-3.06,1.44-4.5,4.5-4.5h1.98c3.06,0,4.5,1.44,4.5,4.5v20.7h24.66V43.32c0-15.66-7.74-23.4-23.4-23.4h-13.68c-15.66,0-23.4,7.74-23.4,23.4V63.3c0,9,2.34,14.22,10.08,19.8l21.6,16.02c3.06,2.16,4.32,4.14,4.32,8.1v15.12c0,3.06-1.44,4.5-4.5,4.5h-2.34c-3.06,0-4.5-1.44-4.5-4.5V97.86h-24.66v26.82c0,15.66,7.74,23.4,23.4,23.4h14.04c15.66,0,23.4-7.74,23.4-23.4V101.46C1468.08,92.1,1465.74,87.24,1458,81.66ZM1537.56,21h-25.2V121.98c0,3.06-1.44,4.5-4.5,4.5h-2.7c-3.06,0-4.5-1.44-4.5-4.5V21h-25.2V124.68c0,15.66,7.74,23.4,23.4,23.4h15.3c15.66,0,23.4-7.74,23.4-23.4Zm59.04,66.42c6.84-2.52,10.8-7.92,10.8-18.72V44.4c0-15.66-7.74-23.4-23.4-23.4h-37.62V147h25.2V99.3h6.3c3.06,0,4.5,1.44,4.5,4.5V147h25.2V103.62C1607.58,94.44,1604.34,89.58,1596.6,87.42Zm-14.4-39.96V73.38c0,3.06-1.44,4.5-4.5,4.5h-6.12V42.96h6.12C1580.76,42.96,1582.2,44.4,1582.2,47.46ZM1616.04,21V147h25.2V95.52h19.8V73.02h-19.8V43.5h20.7V21Zm113.22,126L1712.7,21h-34.38l-16.56,126h22.86l1.8-18.36h15.84l1.98,18.36Zm-34.92-95.22,5.58,54.9h-11.16Zm76.5,39.6v30.6c0,3.06-1.44,4.5-4.5,4.5h-3.24c-3.06,0-4.5-1.44-4.5-4.5V46.02c0-3.06,1.44-4.5,4.5-4.5h2.88c3.06,0,4.5,1.44,4.5,4.5V72.84h24.84V43.32c0-15.66-7.74-23.4-23.4-23.4H1756.8c-15.66,0-23.4,7.74-23.4,23.4v81.36c0,15.66,7.74,23.4,23.4,23.4h15.48c15.66,0,23.4-7.74,23.4-23.4V91.38ZM1804.14,21V147h47.16V124.5h-21.96V94.26h20.7V71.76h-20.7V43.5h21.6V21Zm116.82,70.38v30.6c0,3.06-1.44,4.5-4.5,4.5h-3.24c-3.06,0-4.5-1.44-4.5-4.5V46.02c0-3.06,1.44-4.5,4.5-4.5h2.88c3.06,0,4.5,1.44,4.5,4.5V72.84h24.84V43.32c0-15.66-7.74-23.4-23.4-23.4h-15.12c-15.66,0-23.4,7.74-23.4,23.4v81.36c0,15.66,7.74,23.4,23.4,23.4h15.48c15.66,0,23.4-7.74,23.4-23.4V91.38Zm95.94,33.3V43.32c0-15.66-7.74-23.4-23.4-23.4h-16.2c-15.66,0-23.4,7.74-23.4,23.4v81.36c0,15.66,7.74,23.4,23.4,23.4h16.2C2009.16,148.08,2016.9,140.34,2016.9,124.68Zm-25.2-78.66v75.96c0,3.06-1.44,4.5-4.5,4.5h-3.6c-3.06,0-4.5-1.44-4.5-4.5V46.02c0-3.06,1.44-4.5,4.5-4.5h3.6C1990.26,41.52,1991.7,42.96,1991.7,46.02ZM2087.1,147V21h-21.78l.18,26.1.36,36.36L2051.28,21h-25.74V147h21.78l-.36-36.54-.36-32.04L2062.62,147Zm46.8,0V43.5h15.3V21h-55.8V43.5h15.3V147Zm78.3,0L2195.64,21h-34.38L2144.7,147h22.86l1.8-18.36h15.84l1.98,18.36Zm-34.92-95.22,5.58,54.9H2171.7Zm76.5,39.6v30.6c0,3.06-1.44,4.5-4.5,4.5h-3.24c-3.06,0-4.5-1.44-4.5-4.5V46.02c0-3.06,1.44-4.5,4.5-4.5h2.88c3.06,0,4.5,1.44,4.5,4.5V72.84h24.84V43.32c0-15.66-7.74-23.4-23.4-23.4h-15.12c-15.66,0-23.4,7.74-23.4,23.4v81.36c0,15.66,7.74,23.4,23.4,23.4h15.48c15.66,0,23.4-7.74,23.4-23.4V91.38Zm70.2,55.62V43.5h15.3V21h-55.8V43.5h15.3V147Zm46.08-126V147h25.2V95.52h19.8V73.02h-19.8V43.5h20.7V21Zm115.56,103.68V43.32c0-15.66-7.74-23.4-23.4-23.4h-16.2c-15.66,0-23.4,7.74-23.4,23.4v81.36c0,15.66,7.74,23.4,23.4,23.4h16.2C2477.88,148.08,2485.62,140.34,2485.62,124.68Zm-25.2-78.66v75.96c0,3.06-1.44,4.5-4.5,4.5h-3.6c-3.06,0-4.5-1.44-4.5-4.5V46.02c0-3.06,1.44-4.5,4.5-4.5h3.6C2458.98,41.52,2460.42,42.96,2460.42,46.02Zm84.06,41.4c6.84-2.52,10.8-7.92,10.8-18.72V44.4c0-15.66-7.74-23.4-23.4-23.4h-37.62V147h25.2V99.3h6.3c3.06,0,4.5,1.44,4.5,4.5V147h25.2V103.62C2555.46,94.44,2552.22,89.58,2544.48,87.42Zm-14.4-39.96V73.38c0,3.06-1.44,4.5-4.5,4.5h-6.12V42.96h6.12C2528.64,42.96,2530.08,44.4,2530.08,47.46Zm120.96,77.22V43.32c0-15.66-7.74-23.4-23.4-23.4h-16.2c-15.66,0-23.4,7.74-23.4,23.4v81.36c0,15.66,7.74,23.4,23.4,23.4h16.2C2643.3,148.08,2651.04,140.34,2651.04,124.68Zm-25.2-78.66v75.96c0,3.06-1.44,4.5-4.5,4.5h-3.6c-3.06,0-4.5-1.44-4.5-4.5V46.02c0-3.06,1.44-4.5,4.5-4.5h3.6C2624.4,41.52,2625.84,42.96,2625.84,46.02Zm59.04,57.24h11.7c15.66,0,23.4-7.74,23.4-23.4V44.4c0-15.66-7.74-23.4-23.4-23.4h-36.9V147h25.2Zm9.9-56.16V77.16c0,3.06-1.44,4.5-4.5,4.5h-5.4V42.6h5.4C2693.34,42.6,2694.78,44.04,2694.78,47.1ZM2764.8,147V43.5h15.3V21h-55.8V43.5h15.3V147Zm46.98-126h-25.2V147h25.2Zm38.88,126h23.76l9.54-82.44V147h24.84V21h-36.54l-7.74,76.32L2857.32,21h-36.36V147h20.16V63.66Zm131.04,0L2965.14,21h-34.38L2914.2,147h22.86l1.8-18.36h15.84l1.98,18.36Zm-34.92-95.22,5.58,54.9H2941.2ZM2987.1,21V147h43.38V124.5H3012.3V21Zm111.6,70.38v30.6c0,3.06-1.44,4.5-4.5,4.5h-3.24c-3.06,0-4.5-1.44-4.5-4.5V46.02c0-3.06,1.44-4.5,4.5-4.5h2.88c3.06,0,4.5,1.44,4.5,4.5V72.84h24.84V43.32c0-15.66-7.74-23.4-23.4-23.4h-15.12c-15.66,0-23.4,7.74-23.4,23.4v81.36c0,15.66,7.74,23.4,23.4,23.4h15.48c15.66,0,23.4-7.74,23.4-23.4V91.38Zm95.94,33.3V43.32c0-15.66-7.74-23.4-23.4-23.4h-16.2c-15.66,0-23.4,7.74-23.4,23.4v81.36c0,15.66,7.74,23.4,23.4,23.4h16.2C3186.9,148.08,3194.64,140.34,3194.64,124.68Zm-25.2-78.66v75.96c0,3.06-1.44,4.5-4.5,4.5h-3.6c-3.06,0-4.5-1.44-4.5-4.5V46.02c0-3.06,1.44-4.5,4.5-4.5h3.6C3168,41.52,3169.44,42.96,3169.44,46.02ZM3264.84,147V21h-21.78l.18,26.1.36,36.36L3229.02,21h-25.74V147h21.78l-.36-36.54-.36-32.04L3240.36,147Zm46.8,0V43.5h15.3V21h-55.8V43.5h15.3V147Zm71.82-59.58c6.84-2.52,10.8-7.92,10.8-18.72V44.4c0-15.66-7.74-23.4-23.4-23.4h-37.62V147h25.2V99.3h6.3c3.06,0,4.5,1.44,4.5,4.5V147h25.2V103.62C3394.44,94.44,3391.2,89.58,3383.46,87.42Zm-14.4-39.96V73.38c0,3.06-1.44,4.5-4.5,4.5h-6.12V42.96h6.12C3367.62,42.96,3369.06,44.4,3369.06,47.46Zm96.48,77.22V43.32c0-15.66-7.74-23.4-23.4-23.4h-16.2c-15.66,0-23.4,7.74-23.4,23.4v81.36c0,15.66,7.74,23.4,23.4,23.4h16.2C3457.8,148.08,3465.54,140.34,3465.54,124.68Zm-25.2-78.66v75.96c0,3.06-1.44,4.5-4.5,4.5h-3.6c-3.06,0-4.5-1.44-4.5-4.5V46.02c0-3.06,1.44-4.5,4.5-4.5h3.6C3438.9,41.52,3440.34,42.96,3440.34,46.02ZM3474.18,21V147h43.38V124.5h-18.18V21ZM4.5,294H39.96c18.18,0,27-8.82,27-27V195c0-18.18-8.82-27-27-27H4.5ZM29.7,189.6h5.04c4.86,0,7.02,2.16,7.02,7.02v68.76c0,4.86-2.16,7.02-7.02,7.02H29.7ZM137.52,168h-25.2V268.98c0,3.06-1.44,4.5-4.5,4.5h-2.7c-3.06,0-4.5-1.44-4.5-4.5V168H75.42V271.68c0,15.66,7.74,23.4,23.4,23.4h15.3c15.66,0,23.4-7.74,23.4-23.4Zm59.04,66.42c6.84-2.52,10.8-7.92,10.8-18.72V191.4c0-15.66-7.74-23.4-23.4-23.4H146.34V294h25.2V246.3h6.3c3.06,0,4.5,1.44,4.5,4.5V294h25.2V250.62C207.54,241.44,204.3,236.58,196.56,234.42Zm-14.4-39.96v25.92c0,3.06-1.44,4.5-4.5,4.5h-6.12V189.96h6.12C180.72,189.96,182.16,191.4,182.16,194.46ZM279.9,294,263.34,168H228.96L212.4,294h22.86l1.8-18.36H252.9L254.88,294Zm-34.92-95.22,5.58,54.9H239.4Zm90.36,30.06c6.66-2.52,10.44-7.92,10.44-18.72V191.4c0-15.66-7.74-23.4-23.4-23.4H285.3V294h37.44c15.66,0,23.4-7.74,23.4-23.4V245.04C346.14,235.86,342.9,231,335.34,228.84ZM320.76,194.1v20.88c0,3.06-1.44,4.5-4.5,4.5h-5.94V189.6h5.94C319.32,189.6,320.76,191.04,320.76,194.1Zm-10.44,46.44h6.3c3.06,0,4.5,1.44,4.5,4.5V267.9c0,3.06-1.44,4.5-4.5,4.5h-6.3ZM354.24,168V294h43.38V271.5H379.44V168Zm50.04,0V294h47.16V271.5H429.48V241.26h20.7v-22.5h-20.7V190.5h21.6V168Zm77.4,98.28h-23.4V294h7.92c-.9,3.42-2.52,7.02-5.58,13.32l-2.52,5.22,9.54,2.7,4.68-6.3c8.1-10.98,9.36-13.86,9.36-26.64Zm82.26-37.62-21.6-16.02c-3.06-2.16-4.32-4.14-4.32-8.1V192.66c0-3.06,1.44-4.5,4.5-4.5h1.98c3.06,0,4.5,1.44,4.5,4.5v20.7h24.66V190.32c0-15.66-7.74-23.4-23.4-23.4H536.58c-15.66,0-23.4,7.74-23.4,23.4V210.3c0,9,2.34,14.22,10.08,19.8l21.6,16.02c3.06,2.16,4.32,4.14,4.32,8.1v15.12c0,3.06-1.44,4.5-4.5,4.5h-2.34c-3.06,0-4.5-1.44-4.5-4.5V244.86H513.18v26.82c0,15.66,7.74,23.4,23.4,23.4h14.04c15.66,0,23.4-7.74,23.4-23.4V248.46C574.02,239.1,571.68,234.24,563.94,228.66ZM644.58,294,628.02,168H593.64L577.08,294h22.86l1.8-18.36h15.84L619.56,294Zm-34.92-95.22,5.58,54.9H604.08ZM711.54,294V168H689.76l.18,26.1.36,36.36L675.72,168H649.98V294h21.78l-.36-36.54-.36-32.04L687.06,294Zm9,0H756c18.18,0,27-8.82,27-27V195c0-18.18-8.82-27-27-27H720.54Zm25.2-104.4h5.04c4.86,0,7.02,2.16,7.02,7.02v68.76c0,4.86-2.16,7.02-7.02,7.02h-5.04ZM854.1,243.96v25.02c0,3.06-1.44,4.5-4.5,4.5h-4.14c-3.06,0-4.5-1.44-4.5-4.5V193.02c0-3.06,1.44-4.5,4.5-4.5h3.6c3.06,0,4.5,1.44,4.5,4.5v21.42H878.4V190.32c0-15.66-7.74-23.4-23.4-23.4H839.16c-15.66,0-23.4,7.74-23.4,23.4v81.36c0,15.66,7.74,23.4,23.4,23.4h16.2c15.66,0,23.4-7.74,23.4-23.4V222.9H846.18v21.06Zm83.52-9.54c6.84-2.52,10.8-7.92,10.8-18.72V191.4c0-15.66-7.74-23.4-23.4-23.4H887.4V294h25.2V246.3h6.3c3.06,0,4.5,1.44,4.5,4.5V294h25.2V250.62C948.6,241.44,945.36,236.58,937.62,234.42Zm-14.4-39.96v25.92c0,3.06-1.44,4.5-4.5,4.5H912.6V189.96h6.12C921.78,189.96,923.22,191.4,923.22,194.46ZM982.44,168h-25.2V294h25.2Zm46.98,126V190.5h15.3V168h-55.8v22.5h15.3V294Zm83.16-55.62v30.6c0,3.06-1.44,4.5-4.5,4.5h-3.24c-3.06,0-4.5-1.44-4.5-4.5V193.02c0-3.06,1.44-4.5,4.5-4.5h2.88c3.06,0,4.5,1.44,4.5,4.5v26.82h24.84V190.32c0-15.66-7.74-23.4-23.4-23.4h-15.12c-15.66,0-23.4,7.74-23.4,23.4v81.36c0,15.66,7.74,23.4,23.4,23.4h15.48c15.66,0,23.4-7.74,23.4-23.4v-33.3Zm95.94,33.3V190.32c0-15.66-7.74-23.4-23.4-23.4h-16.2c-15.66,0-23.4,7.74-23.4,23.4v81.36c0,15.66,7.74,23.4,23.4,23.4h16.2C1200.78,295.08,1208.52,287.34,1208.52,271.68Zm-25.2-78.66v75.96c0,3.06-1.44,4.5-4.5,4.5h-3.6c-3.06,0-4.5-1.44-4.5-4.5V193.02c0-3.06,1.44-4.5,4.5-4.5h3.6C1181.88,188.52,1183.32,189.96,1183.32,193.02ZM1280.16,294,1263.6,168h-34.38l-16.56,126h22.86l1.8-18.36h15.84l1.98,18.36Zm-34.92-95.22,5.58,54.9h-11.16ZM1316.16,294V190.5h15.3V168h-55.8v22.5h15.3V294Zm46.98-126h-25.2V294h25.2Zm70.74,126V168H1412.1l.18,26.1.36,36.36L1398.06,168h-25.74V294h21.78l-.36-36.54-.36-32.04L1409.4,294Zm46.98-50.04v25.02c0,3.06-1.44,4.5-4.5,4.5h-4.14c-3.06,0-4.5-1.44-4.5-4.5V193.02c0-3.06,1.44-4.5,4.5-4.5h3.6c3.06,0,4.5,1.44,4.5,4.5v21.42h24.84V190.32c0-15.66-7.74-23.4-23.4-23.4h-15.84c-15.66,0-23.4,7.74-23.4,23.4v81.36c0,15.66,7.74,23.4,23.4,23.4h16.2c15.66,0,23.4-7.74,23.4-23.4V222.9h-32.58v21.06Zm82.98,6.3h11.7c15.66,0,23.4-7.74,23.4-23.4V191.4c0-15.66-7.74-23.4-23.4-23.4h-36.9V294h25.2Zm9.9-56.16v30.06c0,3.06-1.44,4.5-4.5,4.5h-5.4V189.6h5.4C1572.3,189.6,1573.74,191.04,1573.74,194.1Zm82.44,40.32c6.84-2.52,10.8-7.92,10.8-18.72V191.4c0-15.66-7.74-23.4-23.4-23.4h-37.62V294h25.2V246.3h6.3c3.06,0,4.5,1.44,4.5,4.5V294h25.2V250.62C1667.16,241.44,1663.92,236.58,1656.18,234.42Zm-14.4-39.96v25.92c0,3.06-1.44,4.5-4.5,4.5h-6.12V189.96h6.12C1640.34,189.96,1641.78,191.4,1641.78,194.46Zm96.48,77.22V190.32c0-15.66-7.74-23.4-23.4-23.4h-16.2c-15.66,0-23.4,7.74-23.4,23.4v81.36c0,15.66,7.74,23.4,23.4,23.4h16.2C1730.52,295.08,1738.26,287.34,1738.26,271.68Zm-25.2-78.66v75.96c0,3.06-1.44,4.5-4.5,4.5h-3.6c-3.06,0-4.5-1.44-4.5-4.5V193.02c0-3.06,1.44-4.5,4.5-4.5h3.6C1711.62,188.52,1713.06,189.96,1713.06,193.02ZM1792.44,294l16.92-126h-23.4l-9.18,89.46L1767.96,168H1742.4l16.92,126Zm47.7-126h-25.2V294h25.2Zm9.18,126h35.46c18.18,0,27-8.82,27-27V195c0-18.18-8.82-27-27-27h-35.46Zm25.2-104.4h5.04c4.86,0,7.02,2.16,7.02,7.02v68.76c0,4.86-2.16,7.02-7.02,7.02h-5.04Zm45.9-21.6V294h47.16V271.5h-21.96V241.26h20.7v-22.5h-20.7V190.5h21.6V168Zm104.76,60.66-21.6-16.02c-3.06-2.16-4.32-4.14-4.32-8.1V192.66c0-3.06,1.44-4.5,4.5-4.5h1.98c3.06,0,4.5,1.44,4.5,4.5v20.7h24.66V190.32c0-15.66-7.74-23.4-23.4-23.4h-13.68c-15.66,0-23.4,7.74-23.4,23.4V210.3c0,9,2.34,14.22,10.08,19.8l21.6,16.02c3.06,2.16,4.32,4.14,4.32,8.1v15.12c0,3.06-1.44,4.5-4.5,4.5h-2.34c-3.06,0-4.5-1.44-4.5-4.5V244.86h-24.66v26.82c0,15.66,7.74,23.4,23.4,23.4h14.04c15.66,0,23.4-7.74,23.4-23.4V248.46C2035.26,239.1,2032.92,234.24,2025.18,228.66ZM2067.3,168V294h47.16V271.5H2092.5V241.26h20.7v-22.5h-20.7V190.5h21.6V168Zm116.82,126V168h-21.78l.18,26.1.36,36.36L2148.3,168h-25.74V294h21.78l-.36-36.54-.36-32.04L2159.64,294Zm34.2-75.24V168h-25.2V294h25.2V241.26h12.6V294h25.2V168h-25.2v50.76ZM2329.02,294l-16.56-126h-34.38l-16.56,126h22.86l1.8-18.36h15.84L2304,294Zm-34.92-95.22,5.58,54.9h-11.16ZM2395.98,294V168H2374.2l.18,26.1.36,36.36L2360.16,168h-25.74V294h21.78l-.36-36.54-.36-32.04L2371.5,294Zm46.08-55.62v30.6c0,3.06-1.44,4.5-4.5,4.5h-3.24c-3.06,0-4.5-1.44-4.5-4.5V193.02c0-3.06,1.44-4.5,4.5-4.5h2.88c3.06,0,4.5,1.44,4.5,4.5v26.82h24.84V190.32c0-15.66-7.74-23.4-23.4-23.4h-15.12c-15.66,0-23.4,7.74-23.4,23.4v81.36c0,15.66,7.74,23.4,23.4,23.4h15.48c15.66,0,23.4-7.74,23.4-23.4v-33.3Zm33.3-70.38V294h47.16V271.5h-21.96V241.26h20.7v-22.5h-20.7V190.5h21.6V168Zm55.26,126h35.46c18.18,0,27-8.82,27-27V195c0-18.18-8.82-27-27-27h-35.46Zm25.2-104.4h5.04c4.86,0,7.02,2.16,7.02,7.02v68.76c0,4.86-2.16,7.02-7.02,7.02h-5.04ZM2626.2,168V294h25.2V242.52h19.8v-22.5h-19.8V190.5h20.7V168Zm52.92,0V294h47.16V271.5h-21.96V241.26h20.7v-22.5h-20.7V190.5h21.6V168Zm55.26,0V294h47.16V271.5h-21.96V241.26h20.7v-22.5h-20.7V190.5h21.6V168Zm55.26,0V294h43.38V271.5h-18.18V168Zm112.32,126V190.5h15.3V168h-55.8v22.5h15.3V294Zm46.8-75.24V168h-25.2V294h25.2V241.26h12.6V294h25.2V168h-25.2v50.76Zm97.02,15.66c6.84-2.52,10.8-7.92,10.8-18.72V191.4c0-15.66-7.74-23.4-23.4-23.4h-37.62V294h25.2V246.3h6.3c3.06,0,4.5,1.44,4.5,4.5V294h25.2V250.62C3056.76,241.44,3053.52,236.58,3045.78,234.42Zm-14.4-39.96v25.92c0,3.06-1.44,4.5-4.5,4.5h-6.12V189.96h6.12C3029.94,189.96,3031.38,191.4,3031.38,194.46Zm96.48,77.22V190.32c0-15.66-7.74-23.4-23.4-23.4h-16.2c-15.66,0-23.4,7.74-23.4,23.4v81.36c0,15.66,7.74,23.4,23.4,23.4h16.2C3120.12,295.08,3127.86,287.34,3127.86,271.68Zm-25.2-78.66v75.96c0,3.06-1.44,4.5-4.5,4.5h-3.6c-3.06,0-4.5-1.44-4.5-4.5V193.02c0-3.06,1.44-4.5,4.5-4.5h3.6C3101.22,188.52,3102.66,189.96,3102.66,193.02ZM3198.42,168h-25.2V268.98c0,3.06-1.44,4.5-4.5,4.5h-2.7c-3.06,0-4.5-1.44-4.5-4.5V168h-25.2V271.68c0,15.66,7.74,23.4,23.4,23.4h15.3c15.66,0,23.4-7.74,23.4-23.4Zm46.8,75.96v25.02c0,3.06-1.44,4.5-4.5,4.5h-4.14c-3.06,0-4.5-1.44-4.5-4.5V193.02c0-3.06,1.44-4.5,4.5-4.5h3.6c3.06,0,4.5,1.44,4.5,4.5v21.42h24.84V190.32c0-15.66-7.74-23.4-23.4-23.4h-15.84c-15.66,0-23.4,7.74-23.4,23.4v81.36c0,15.66,7.74,23.4,23.4,23.4h16.2c15.66,0,23.4-7.74,23.4-23.4V222.9H3237.3v21.06Zm58.5-25.2V168h-25.2V294h25.2V241.26h12.6V294h25.2V168h-25.2v50.76Zm109.44,52.92V190.32c0-15.66-7.74-23.4-23.4-23.4h-16.2c-15.66,0-23.4,7.74-23.4,23.4v81.36c0,15.66,7.74,23.4,23.4,23.4h16.2C3405.42,295.08,3413.16,287.34,3413.16,271.68Zm-25.2-78.66v75.96c0,3.06-1.44,4.5-4.5,4.5h-3.6c-3.06,0-4.5-1.44-4.5-4.5V193.02c0-3.06,1.44-4.5,4.5-4.5h3.6C3386.52,188.52,3387.96,189.96,3387.96,193.02ZM3483.72,168h-25.2V268.98c0,3.06-1.44,4.5-4.5,4.5h-2.7c-3.06,0-4.5-1.44-4.5-4.5V168h-25.2V271.68c0,15.66,7.74,23.4,23.4,23.4h15.3c15.66,0,23.4-7.74,23.4-23.4Zm46.62,126V190.5h15.3V168h-55.8v22.5h15.3V294Zm83.88,0V190.5h15.3V168h-55.8v22.5h15.3V294Zm46.8-75.24V168h-25.2V294h25.2V241.26h12.6V294h25.2V168h-25.2v50.76Zm46.8-50.76V294h47.16V271.5h-21.96V241.26h20.7v-22.5h-20.7V190.5h21.6V168Zm129.78,60.66L3816,212.64c-3.06-2.16-4.32-4.14-4.32-8.1V192.66c0-3.06,1.44-4.5,4.5-4.5h1.98c3.06,0,4.5,1.44,4.5,4.5v20.7h24.66V190.32c0-15.66-7.74-23.4-23.4-23.4h-13.68c-15.66,0-23.4,7.74-23.4,23.4V210.3c0,9,2.34,14.22,10.08,19.8l21.6,16.02c3.06,2.16,4.32,4.14,4.32,8.1v15.12c0,3.06-1.44,4.5-4.5,4.5H3816c-3.06,0-4.5-1.44-4.5-4.5V244.86h-24.66v26.82c0,15.66,7.74,23.4,23.4,23.4h14.04c15.66,0,23.4-7.74,23.4-23.4V248.46C3847.68,239.1,3845.34,234.24,3837.6,228.66ZM3855.24,168V294h47.16V271.5h-21.96V241.26h20.7v-22.5h-20.7V190.5h21.6V168ZM3974.4,294l-16.56-126h-34.38L3906.9,294h22.86l1.8-18.36h15.84l1.98,18.36Zm-34.92-95.22,5.58,54.9H3933.9Zm89.46,29.88-21.6-16.02c-3.06-2.16-4.32-4.14-4.32-8.1V192.66c0-3.06,1.44-4.5,4.5-4.5h1.98c3.06,0,4.5,1.44,4.5,4.5v20.7h24.66V190.32c0-15.66-7.74-23.4-23.4-23.4h-13.68c-15.66,0-23.4,7.74-23.4,23.4V210.3c0,9,2.34,14.22,10.08,19.8l21.6,16.02c3.06,2.16,4.32,4.14,4.32,8.1v15.12c0,3.06-1.44,4.5-4.5,4.5h-2.34c-3.06,0-4.5-1.44-4.5-4.5V244.86h-24.66v26.82c0,15.66,7.74,23.4,23.4,23.4h14.04c15.66,0,23.4-7.74,23.4-23.4V248.46C4039.02,239.1,4036.68,234.24,4028.94,228.66Zm80.28,43.02V190.32c0-15.66-7.74-23.4-23.4-23.4h-16.2c-15.66,0-23.4,7.74-23.4,23.4v81.36c0,15.66,7.74,23.4,23.4,23.4h16.2C4101.48,295.08,4109.22,287.34,4109.22,271.68Zm-25.2-78.66v75.96c0,3.06-1.44,4.5-4.5,4.5h-3.6c-3.06,0-4.5-1.44-4.5-4.5V193.02c0-3.06,1.44-4.5,4.5-4.5h3.6C4082.58,188.52,4084.02,189.96,4084.02,193.02ZM4179.42,294V168h-21.78l.18,26.1.36,36.36L4143.6,168h-25.74V294h21.78l-.36-36.54-.36-32.04L4154.94,294ZM4.5,315V441H51.66V418.5H29.7V388.26H50.4v-22.5H29.7V337.5H51.3V315Zm55.26,0V441h43.38V418.5H84.96V315Zm75.42,0h-25.2V441h25.2Zm46.98,126V337.5h15.3V315h-55.8v22.5h15.3V441Zm21.6-126V441h47.16V418.5H228.96V388.26h20.7v-22.5h-20.7V337.5h21.6V315Zm79.74,0V441h47.16V418.5H308.7V388.26h20.7v-22.5H308.7V337.5h21.6V315ZM400.32,441V315H378.54l.18,26.1.36,36.36L364.5,315H338.76V441h21.78l-.36-36.54-.36-32.04L375.84,441Zm9,0h35.46c18.18,0,27-8.82,27-27V342c0-18.18-8.82-27-27-27H409.32Zm25.2-104.4h5.04c4.86,0,7.02,2.16,7.02,7.02v68.76c0,4.86-2.16,7.02-7.02,7.02h-5.04Zm107.46,48.78v30.6c0,3.06-1.44,4.5-4.5,4.5h-3.24c-3.06,0-4.5-1.44-4.5-4.5V340.02c0-3.06,1.44-4.5,4.5-4.5h2.88c3.06,0,4.5,1.44,4.5,4.5v26.82h24.84V337.32c0-15.66-7.74-23.4-23.4-23.4H527.94c-15.66,0-23.4,7.74-23.4,23.4v81.36c0,15.66,7.74,23.4,23.4,23.4h15.48c15.66,0,23.4-7.74,23.4-23.4v-33.3ZM638.28,441,621.72,315H587.34L570.78,441h22.86l1.8-18.36h15.84L613.26,441Zm-34.92-95.22,5.58,54.9H597.78Zm65.52,51.48h11.7c15.66,0,23.4-7.74,23.4-23.4V338.4c0-15.66-7.74-23.4-23.4-23.4h-36.9V441h25.2Zm9.9-56.16v30.06c0,3.06-1.44,4.5-4.5,4.5h-5.4V336.6h5.4C677.34,336.6,678.78,338.04,678.78,341.1Zm56.7-26.1V441h25.2V389.52h19.8v-22.5h-19.8V337.5h20.7V315ZM851.04,418.68V337.32c0-15.66-7.74-23.4-23.4-23.4h-16.2c-15.66,0-23.4,7.74-23.4,23.4v81.36c0,15.66,7.74,23.4,23.4,23.4h16.2C843.3,442.08,851.04,434.34,851.04,418.68Zm-25.2-78.66v75.96c0,3.06-1.44,4.5-4.5,4.5h-3.6c-3.06,0-4.5-1.44-4.5-4.5V340.02c0-3.06,1.44-4.5,4.5-4.5h3.6C824.4,335.52,825.84,336.96,825.84,340.02Zm84.06,41.4c6.84-2.52,10.8-7.92,10.8-18.72V338.4c0-15.66-7.74-23.4-23.4-23.4H859.68V441h25.2V393.3h6.3c3.06,0,4.5,1.44,4.5,4.5V441h25.2V397.62C920.88,388.44,917.64,383.58,909.9,381.42Zm-14.4-39.96v25.92c0,3.06-1.44,4.5-4.5,4.5h-6.12V336.96H891C894.06,336.96,895.5,338.4,895.5,341.46ZM1017.72,441l-16.56-126H966.78L950.22,441h22.86l1.8-18.36h15.84L992.7,441ZM982.8,345.78l5.58,54.9H977.22ZM1047.6,315V441h43.38V418.5H1072.8V315Zm75.42,0h-25.2V441h25.2Zm47.16,75.96v25.02c0,3.06-1.44,4.5-4.5,4.5h-4.14c-3.06,0-4.5-1.44-4.5-4.5V340.02c0-3.06,1.44-4.5,4.5-4.5h3.6c3.06,0,4.5,1.44,4.5,4.5v21.42h24.84V337.32c0-15.66-7.74-23.4-23.4-23.4h-15.84c-15.66,0-23.4,7.74-23.4,23.4v81.36c0,15.66,7.74,23.4,23.4,23.4h16.2c15.66,0,23.4-7.74,23.4-23.4V369.9h-32.58v21.06Zm58.5-25.2V315h-25.2V441h25.2V388.26h12.6V441h25.2V315h-25.2v50.76Zm84.6,75.24V337.5h15.3V315h-55.8v22.5h15.3V441Zm57.6-126-7.2,67.5L1357.2,315h-25.56l15.3,126h27.72l6.3-57.42,6.66,57.42h27.72l15.3-126h-22.32l-6.48,66.96-7.2-66.96Zm65.52,0V441h47.16V418.5H1461.6V388.26h20.7v-22.5h-20.7V337.5h21.6V315Zm80.64,0h-25.2V441h25.2Zm47.16,75.96v25.02c0,3.06-1.44,4.5-4.5,4.5h-4.14c-3.06,0-4.5-1.44-4.5-4.5V340.02c0-3.06,1.44-4.5,4.5-4.5h3.6c3.06,0,4.5,1.44,4.5,4.5v21.42h24.84V337.32c0-15.66-7.74-23.4-23.4-23.4h-15.84c-15.66,0-23.4,7.74-23.4,23.4v81.36c0,15.66,7.74,23.4,23.4,23.4h16.2c15.66,0,23.4-7.74,23.4-23.4V369.9h-32.58v21.06Zm58.5-25.2V315h-25.2V441h25.2V388.26h12.6V441h25.2V315h-25.2v50.76ZM1707.3,441V337.5h15.3V315h-55.8v22.5h15.3V441Zm109.98,0-16.56-126h-34.38l-16.56,126h22.86l1.8-18.36h15.84l1.98,18.36Zm-34.92-95.22,5.58,54.9h-11.16ZM1884.24,441V315h-21.78l.18,26.1.36,36.36L1848.42,315h-25.74V441h21.78l-.36-36.54-.36-32.04L1859.76,441Zm9,0h35.46c18.18,0,27-8.82,27-27V342c0-18.18-8.82-27-27-27h-35.46Zm25.2-104.4h5.04c4.86,0,7.02,2.16,7.02,7.02v68.76c0,4.86-2.16,7.02-7.02,7.02h-5.04ZM1988.82,441h35.46c18.18,0,27-8.82,27-27V342c0-18.18-8.82-27-27-27h-35.46Zm25.2-104.4h5.04c4.86,0,7.02,2.16,7.02,7.02v68.76c0,4.86-2.16,7.02-7.02,7.02h-5.04ZM2121.84,315h-25.2V415.98c0,3.06-1.44,4.5-4.5,4.5h-2.7c-3.06,0-4.5-1.44-4.5-4.5V315h-25.2V418.68c0,15.66,7.74,23.4,23.4,23.4h15.3c15.66,0,23.4-7.74,23.4-23.4Zm59.04,66.42c6.84-2.52,10.8-7.92,10.8-18.72V338.4c0-15.66-7.74-23.4-23.4-23.4h-37.62V441h25.2V393.3h6.3c3.06,0,4.5,1.44,4.5,4.5V441h25.2V397.62C2191.86,388.44,2188.62,383.58,2180.88,381.42Zm-14.4-39.96v25.92c0,3.06-1.44,4.5-4.5,4.5h-6.12V336.96h6.12C2165.04,336.96,2166.48,338.4,2166.48,341.46ZM2264.22,441l-16.56-126h-34.38l-16.56,126h22.86l1.8-18.36h15.84L2239.2,441Zm-34.92-95.22,5.58,54.9h-11.16Zm90.36,30.06c6.66-2.52,10.44-7.92,10.44-18.72V338.4c0-15.66-7.74-23.4-23.4-23.4h-37.08V441h37.44c15.66,0,23.4-7.74,23.4-23.4V392.04C2330.46,382.86,2327.22,378,2319.66,375.84Zm-14.58-34.74v20.88c0,3.06-1.44,4.5-4.5,4.5h-5.94V336.6h5.94C2303.64,336.6,2305.08,338.04,2305.08,341.1Zm-10.44,46.44h6.3c3.06,0,4.5,1.44,4.5,4.5V414.9c0,3.06-1.44,4.5-4.5,4.5h-6.3ZM2338.56,315V441h43.38V418.5h-18.18V315Zm50.04,0V441h47.16V418.5H2413.8V388.26h20.7v-22.5h-20.7V337.5h21.6V315Zm143.64,126-16.56-126H2481.3l-16.56,126h22.86l1.8-18.36h15.84l1.98,18.36Zm-34.92-95.22,5.58,54.9h-11.16ZM2537.64,315V441h43.38V418.5h-18.18V315Zm77.94,126V337.5h15.3V315h-55.8v22.5h15.3V441Zm21.6-126V441h47.16V418.5h-21.96V388.26h20.7v-22.5h-20.7V337.5h21.6V315Zm105.48,66.42c6.84-2.52,10.8-7.92,10.8-18.72V338.4c0-15.66-7.74-23.4-23.4-23.4h-37.62V441h25.2V393.3h6.3c3.06,0,4.5,1.44,4.5,4.5V441h25.2V397.62C2753.64,388.44,2750.4,383.58,2742.66,381.42Zm-14.4-39.96v25.92c0,3.06-1.44,4.5-4.5,4.5h-6.12V336.96h6.12C2726.82,336.96,2728.26,338.4,2728.26,341.46Zm95.4,99.54V315h-21.78l.18,26.1.36,36.36L2787.84,315H2762.1V441h21.78l-.36-36.54-.36-32.04L2799.18,441Zm72.9,0L2880,315h-34.38l-16.56,126h22.86l1.8-18.36h15.84l1.98,18.36Zm-34.92-95.22,5.58,54.9h-11.16ZM2932.56,441V337.5h15.3V315h-55.8v22.5h15.3V441Zm46.98-126h-25.2V441h25.2Zm55.62,126,16.92-126h-23.4l-9.18,89.46L3010.68,315h-25.56l16.92,126Zm22.32-126V441h47.16V418.5h-21.96V388.26h20.7v-22.5h-20.7V337.5h21.6V315Zm117.54,126V337.5h15.3V315h-55.8v22.5h15.3V441Zm83.34-22.32V337.32c0-15.66-7.74-23.4-23.4-23.4h-16.2c-15.66,0-23.4,7.74-23.4,23.4v81.36c0,15.66,7.74,23.4,23.4,23.4h16.2C3250.62,442.08,3258.36,434.34,3258.36,418.68Zm-25.2-78.66v75.96c0,3.06-1.44,4.5-4.5,4.5h-3.6c-3.06,0-4.5-1.44-4.5-4.5V340.02c0-3.06,1.44-4.5,4.5-4.5h3.6C3231.72,335.52,3233.16,336.96,3233.16,340.02ZM3329.28,441V337.5h15.3V315h-55.8v22.5h15.3V441Zm78.3,0-16.56-126h-34.38l-16.56,126h22.86l1.8-18.36h15.84l1.98,18.36Zm-34.92-95.22,5.58,54.9h-11.16Zm65.52,51.48h11.7c15.66,0,23.4-7.74,23.4-23.4V338.4c0-15.66-7.74-23.4-23.4-23.4h-36.9V441h25.2Zm9.9-56.16v30.06c0,3.06-1.44,4.5-4.5,4.5h-5.4V336.6h5.4C3446.64,336.6,3448.08,338.04,3448.08,341.1ZM3480.3,315V441h47.16V418.5H3505.5V388.26h20.7v-22.5h-20.7V337.5h21.6V315Z" transform="translate(-2110 1469)" fill="none" stroke="#000" stroke-width="3" opacity="0.1"/>
    <rect id="Rectangle_12" data-name="Rectangle 12" width="1440" height="580" transform="translate(0 1292)" opacity="0.9" fill="url(#linear-gradient)"/>
  </g>
</svg>
